<?xml version="1.0" encoding="utf-8"?><svg viewBox="0 0 502.66 502.66" xmlns="http://www.w3.org/2000/svg" xmlns:xlink="http://www.w3.org/1999/xlink"><style>:root>svg{display:none}:root>svg:target{display:block}</style><svg viewBox="0 0 14 9" id="arrow-down" xmlns="http://www.w3.org/2000/svg"><path fill-rule="evenodd" clip-rule="evenodd" d="M13.47.864a.9.9 0 010 1.272L7.636 7.97a.9.9 0 01-1.272 0L.53 2.136A.9.9 0 111.803.864L7 6.06 12.197.864a.9.9 0 011.273 0z"/></svg><svg viewBox="0 0 14 9" id="arrow-slider" xmlns="http://www.w3.org/2000/svg"><path fill-rule="evenodd" clip-rule="evenodd" d="M13.47.864a.9.9 0 010 1.272L7.636 7.97a.9.9 0 01-1.272 0L.53 2.136A.9.9 0 111.803.864L7 6.06 12.197.864a.9.9 0 011.273 0z"/></svg><svg viewBox="0 0 24 24" id="cart" xmlns="http://www.w3.org/2000/svg"><path d="M1 2.5h1.654c.479 0 .718 0 .912.087a1 1 0 01.423.355c.119.177.16.413.242.884L4.609 6m0 0l.883 5.077c.179 1.03.269 1.546.534 1.917a2 2 0 00.937.714c.428.157.949.107 1.99.006l9.661-.935c1.016-.098 1.524-.147 1.908-.376a2 2 0 00.788-.867c.19-.405.19-.915.19-1.935 0-1.085 0-1.628-.208-2.047a2 2 0 00-.852-.877c-.413-.22-.955-.237-2.04-.269L4.61 6z"/><circle cx="8.5" cy="19" r="2"/><circle cx="18" cy="19" r="2"/></svg><svg viewBox="0 0 24 24" id="heart" xmlns="http://www.w3.org/2000/svg"><path d="M12 21.054C-8 10 6-2 12 5.588 18-2 32 10 12 21.054z"/></svg><svg viewBox="0 0 502.664 502.664" id="icon" xmlns="http://www.w3.org/2000/svg"><path d="M153.821 358.226L0 274.337v-46.463l153.821-83.414v54.574L46.636 250.523l107.185 53.431v54.272zm26.273 29.358L282.103 115.08h32.227L212.084 387.584h-31.99zm168.749-29.358v-54.272l107.164-52.999-107.164-52.59v-53.927l153.821 83.522v46.183l-153.821 84.083z"/></svg><svg viewBox="0 0 24 24" id="tg" xmlns="http://www.w3.org/2000/svg"><path d="M20.782 3.217a.75.75 0 00-.787-.172l-16.5 6a.75.75 0 000 1.402l6.442 2.573 4.756-4.77 1.057 1.057-4.777 4.778 2.58 6.442a.75.75 0 00.697.473.75.75 0 00.69-.495l6-16.5a.75.75 0 00-.158-.788z"/></svg></svg>